<svg xmlns="http://www.w3.org/2000/svg" width="850" height="850" viewBox="0 0 850 850">
  <defs>
    <style>
      .cls-1 {
        fill-rule: evenodd;
      }
    </style>
  </defs>
  <path id="Fond_3" data-name="Fond 3" class="cls-1" d="M406,0C626.862-3.066,747.293,112.474,817,262c43.64,93.612,41.668,239.6-1,333C763.941,708.95,674.583,793.765,548,833c-29.317,9.087-61.246,11.8-95,17-64.262,9.9-137.152-11.757-179-28C145.018,771.936,56.957,677.844,15,541c-8.9-29.043-8.88-57.769-14-92-8.592-57.45,5.668-120.432,21-162C67.006,164.981,151.268,75.1,271,28c28.173-11.083,59.431-17.9,92-24ZM330,653q-0.5,50-1,100a436.292,436.292,0,0,0,199-1c0.45-48.182,9.8-130.63-5-167-6.052-14.876-17.78-22.693-27-34v-1c26,0.3,49.365-7.089,69-14,72.977-25.688,99.565-66.818,113-153,3.872-24.841,1.159-56.631-5-76-7.374-23.189-21.442-39.365-34-57,14.646-32.38,5.815-70.889-3-103-29.971-9.228-91.607,25.429-107,40-39.614-5.9-90.563-18.324-138-12l-62,11c-12.474-5.6-87.463-56.185-107-38-16.2,29.7-9.765,70.875-4,104-39.027,29.9-49.3,113.645-32,176,20.044,72.236,84.809,121.283,175,122l-1,1a107.561,107.561,0,0,0-31,55,97.86,97.86,0,0,1-57,8c-11.433-1.085-21.679-4.342-30.6-10.022C216.373,588.043,216.7,562.552,194,547c-14.041-9.621-32.006-12.56-53-10,8.71,15.327,26.782,19.225,36,33,16.145,24.127,16.783,44.15,33,62C233.1,657.432,275.775,662.18,330,653Z"/>
</svg>
